<?xml version="1.0" encoding="UTF-8"?>
<svg id="Layer_1" data-name="Layer 1" xmlns="http://www.w3.org/2000/svg" viewBox="0 0 1000 1000">
  <defs>
    <style>
      .cls-1 {
        fill: none;
        stroke: #fcb249;
        stroke-width: 3.41px;
      }

      .cls-1, .cls-2 {
        stroke-miterlimit: 10;
      }

      .cls-2 {
        fill: #2b4e6a;
        font-family: SilkSerif-Light, 'Silk Serif';
        font-size: 108.45px;
        font-weight: 300;
        stroke: #2b4e6a;
        stroke-width: .49px;
      }

      .cls-3 {
        fill: #fcb249;
      }
    </style>
  </defs>
  <g>
    <g>
      <path class="cls-3" d="M483.53,395.81h-11.14l-17.37-62.8c-.67-1.34-1.08-2.75-1.22-4.23v-.33c-.08-2.9.89-5.38,2.89-7.46,2-2.08,4.45-3.12,7.35-3.12h13.59l-3.34,11.47c-.45,3.42-2.15,5.98-5.12,7.68-2.97,1.71-6.05,1.86-9.24.45l14.48,52.45,16.37-61.47c-.07-2.9.89-5.38,2.89-7.46,2-2.08,4.45-3.12,7.35-3.12h14.25l-11.69,43.65,7.8,28.4,16.37-61.25c.96-3.04,2.69-5.55,5.18-7.52,2.49-1.97,5.33-3.06,8.52-3.28h10.8l-17.93,67.15c-.96,3.04-2.69,5.57-5.18,7.57-2.49,2-5.33,3.08-8.52,3.23h-11.25l-7.57-27.5-4.57,16.7c-.89,3.04-2.6,5.57-5.12,7.57-2.52,2-5.38,3.08-8.57,3.23Z"/>
      <path class="cls-3" d="M524.36,401.8l6.41-9.11,61.35,21.96c1.48.22,2.86.7,4.16,1.43l.27.19c2.41,1.61,3.89,3.83,4.43,6.66.55,2.84-.01,5.44-1.68,7.81l-7.82,11.11-7.45-9.34c-2.54-2.33-3.65-5.2-3.33-8.61.31-3.41,1.97-6.02,4.96-7.81l-51.22-18.36,40.83,48.78c2.41,1.61,3.89,3.83,4.43,6.66.55,2.84-.01,5.44-1.68,7.8l-8.21,11.65-28.96-34.69-27.71-9.98,40.65,48.65c1.93,2.54,2.99,5.39,3.16,8.56.18,3.16-.56,6.12-2.22,8.86l-6.22,8.83-44.58-53.32c-1.93-2.54-3-5.41-3.21-8.59-.21-3.19.55-6.13,2.27-8.82l6.48-9.2,26.85,9.64-11.03-13.35c-1.98-2.48-3.06-5.33-3.24-8.55-.19-3.22.58-6.18,2.3-8.87Z"/>
      <path class="cls-3" d="M497.32,434.72l5.58,9.64-45.66,46.49c-.82,1.25-1.84,2.31-3.05,3.18l-.29.17c-2.47,1.52-5.1,1.92-7.91,1.23-2.8-.69-4.93-2.29-6.38-4.8l-6.8-11.76,11.6-2.85c3.18-1.33,6.25-1.13,9.22.59,2.97,1.72,4.64,4.31,5.01,7.78l38.15-38.8-61.4,16.61c-2.47,1.52-5.1,1.92-7.91,1.23-2.8-.69-4.93-2.29-6.38-4.8l-7.14-12.34,43.64-11.74,20.68-20.97-61.21,16.5c-3.12.69-6.15.45-9.1-.72-2.95-1.17-5.32-3.08-7.11-5.73l-5.41-9.35,67.1-18.1c3.12-.69,6.17-.46,9.15.69,2.98,1.15,5.33,3.07,7.06,5.76l5.63,9.74-20.02,20.33,16.74-4.41c3.08-.76,6.12-.54,9.12.64,3,1.18,5.36,3.12,7.09,5.8Z"/>
    </g>
    <circle class="cls-1" cx="500" cy="407.95" r="112.96"/>
  </g>
  <text class="cls-2" transform="translate(155.84 639.94)"><tspan x="0" y="0">WESTWOOD</tspan></text>
</svg>